<mxfile host="app.diagrams.net" modified="2023-06-13T09:03:09.642Z" agent="Mozilla/5.0 (Windows NT 10.0; Win64; x64) AppleWebKit/537.36 (KHTML, like Gecko) Chrome/114.0.0.0 Safari/537.36" etag="JRYwEL2BnoVDbHz9G_6J" version="21.3.8" type="device">
  <diagram name="Page-1" id="12e1b939-464a-85fe-373e-61e167be1490">
    <mxGraphModel dx="2074" dy="1995" grid="1" gridSize="10" guides="1" tooltips="1" connect="1" arrows="1" fold="1" page="1" pageScale="1.5" pageWidth="1169" pageHeight="826" background="none" math="0" shadow="0">
      <root>
        <mxCell id="0" />
        <mxCell id="1" parent="0" />
        <mxCell id="6rHMkKPi71kGI9fP-m07-1" value="&lt;b&gt;&lt;font style=&quot;font-size: 30px;&quot; color=&quot;#ffffff&quot;&gt;Anti-Malware Company&lt;br&gt;&lt;/font&gt;&lt;/b&gt;" style="whiteSpace=wrap;html=1;strokeColor=#FFFFFF;fillColor=#fe9900;rounded=1;strokeWidth=8;" parent="1" vertex="1">
          <mxGeometry x="1000" y="-60" width="350" height="80" as="geometry" />
        </mxCell>
        <mxCell id="6rHMkKPi71kGI9fP-m07-2" value="&lt;div&gt;&lt;font size=&quot;1&quot;&gt;&lt;b style=&quot;font-size: 39px;&quot;&gt;&lt;br&gt;&lt;/b&gt;&lt;/font&gt;&lt;/div&gt;&lt;div&gt;&lt;font size=&quot;1&quot;&gt;&lt;b style=&quot;font-size: 39px;&quot;&gt;TRANScurity Platform&lt;/b&gt;&lt;/font&gt;&lt;/div&gt;" style="whiteSpace=wrap;html=1;strokeColor=#FFFFFF;fillColor=#000040;rounded=1;strokeWidth=8;fontColor=#FFFFFF;" parent="1" vertex="1">
          <mxGeometry x="195" y="320" width="1155" height="130" as="geometry" />
        </mxCell>
        <mxCell id="6rHMkKPi71kGI9fP-m07-3" value="&lt;b&gt;&lt;font style=&quot;font-size: 30px;&quot; color=&quot;#ffffff&quot;&gt;Software User&lt;/font&gt;&lt;font style=&quot;font-size: 30px;&quot; color=&quot;#ffffff&quot;&gt;&lt;br&gt;&lt;/font&gt;&lt;/b&gt;" style="whiteSpace=wrap;html=1;rounded=1;shadow=0;strokeWidth=8;fontSize=20;align=center;fillColor=#FED217;strokeColor=#FFFFFF;" parent="1" vertex="1">
          <mxGeometry x="197" y="-60" width="280" height="80" as="geometry" />
        </mxCell>
        <mxCell id="6rHMkKPi71kGI9fP-m07-4" value="&lt;b&gt;&lt;font style=&quot;font-size: 30px;&quot; color=&quot;#ffffff&quot;&gt;University&lt;/font&gt;&lt;font style=&quot;font-size: 30px;&quot; color=&quot;#ffffff&quot;&gt;&lt;br&gt;&lt;/font&gt;&lt;/b&gt;" style="whiteSpace=wrap;html=1;rounded=1;shadow=0;strokeWidth=8;fontSize=20;align=center;fillColor=#FFC001;strokeColor=#FFFFFF;" parent="1" vertex="1">
          <mxGeometry x="400" y="40" width="280" height="80" as="geometry" />
        </mxCell>
        <mxCell id="6rHMkKPi71kGI9fP-m07-5" value="&lt;b&gt;&lt;font style=&quot;font-size: 30px;&quot; color=&quot;#ffffff&quot;&gt;Software Provider&lt;/font&gt;&lt;/b&gt;" style="whiteSpace=wrap;html=1;rounded=1;shadow=0;strokeWidth=8;fontSize=20;align=center;fillColor=#FFB001;strokeColor=#FFFFFF;" parent="1" vertex="1">
          <mxGeometry x="600" y="-60" width="280" height="80" as="geometry" />
        </mxCell>
        <mxCell id="6rHMkKPi71kGI9fP-m07-6" value="&lt;b&gt;&lt;font style=&quot;font-size: 30px;&quot; color=&quot;#ffffff&quot;&gt;Security Company&lt;/font&gt;&lt;/b&gt;" style="whiteSpace=wrap;html=1;rounded=1;shadow=0;strokeWidth=8;fontSize=20;align=center;fillColor=#FE9900;strokeColor=#FFFFFF;" parent="1" vertex="1">
          <mxGeometry x="800" y="40" width="280" height="80" as="geometry" />
        </mxCell>
        <mxCell id="6rHMkKPi71kGI9fP-m07-7" value="&lt;font color=&quot;#000040&quot;&gt;&lt;b&gt;&lt;font style=&quot;font-size: 20px;&quot;&gt;Browser Plugin&lt;br&gt;&lt;/font&gt;&lt;/b&gt;&lt;/font&gt;" style="ellipse;whiteSpace=wrap;html=1;rounded=0;shadow=0;strokeWidth=6;fontSize=14;align=center;fillColor=#BFB4A9;strokeColor=#FFFFFF;fontColor=#FFFFFF;" parent="1" vertex="1">
          <mxGeometry x="279.5" y="240" width="115" height="115" as="geometry" />
        </mxCell>
        <mxCell id="6rHMkKPi71kGI9fP-m07-9" value="&lt;font style=&quot;font-size: 20px;&quot; color=&quot;#000040&quot;&gt;&lt;b&gt;Web Platform&lt;br&gt;&lt;/b&gt;&lt;/font&gt;" style="ellipse;whiteSpace=wrap;html=1;rounded=0;shadow=0;strokeWidth=6;fontSize=14;align=center;fillColor=#BFB4A9;strokeColor=#FFFFFF;fontColor=#FFFFFF;" parent="1" vertex="1">
          <mxGeometry x="482.5" y="240" width="115" height="115" as="geometry" />
        </mxCell>
        <mxCell id="6rHMkKPi71kGI9fP-m07-11" value="&lt;font style=&quot;font-size: 20px;&quot; color=&quot;#000040&quot;&gt;&lt;b&gt;&amp;nbsp;Private&amp;nbsp; API&lt;br&gt;&lt;/b&gt;&lt;/font&gt;" style="ellipse;whiteSpace=wrap;html=1;rounded=0;shadow=0;strokeWidth=6;fontSize=14;align=center;fillColor=#BFB4A9;strokeColor=#FFFFFF;fontColor=#FFFFFF;" parent="1" vertex="1">
          <mxGeometry x="882.5" y="240" width="115" height="115" as="geometry" />
        </mxCell>
        <mxCell id="6rHMkKPi71kGI9fP-m07-17" value="&lt;b&gt;&lt;font style=&quot;font-size: 25px;&quot;&gt;Web Front End&lt;br&gt;&lt;/font&gt;&lt;/b&gt;" style="whiteSpace=wrap;html=1;strokeColor=#FFFFFF;fillColor=#000040;rounded=1;strokeWidth=8;fontColor=#FFFFFF;" parent="1" vertex="1">
          <mxGeometry x="195" y="450" width="215" height="60" as="geometry" />
        </mxCell>
        <mxCell id="6rHMkKPi71kGI9fP-m07-18" value="" style="html=1;shadow=0;dashed=0;align=center;verticalAlign=middle;shape=mxgraph.arrows2.stylisedArrow;dy=0.6;dx=40;notch=15;feather=0.4;rounded=0;strokeWidth=1;fontSize=27;strokeColor=none;fillColor=#000040;rotation=90;" parent="1" vertex="1">
          <mxGeometry x="490" y="150" width="100" height="60" as="geometry" />
        </mxCell>
        <mxCell id="6rHMkKPi71kGI9fP-m07-20" value="" style="html=1;shadow=0;dashed=0;align=center;verticalAlign=middle;shape=mxgraph.arrows2.stylisedArrow;dy=0.6;dx=40;notch=15;feather=0.4;rounded=0;strokeWidth=1;fontSize=27;strokeColor=none;fillColor=#000040;rotation=90;" parent="1" vertex="1">
          <mxGeometry x="297" y="110" width="100" height="60" as="geometry" />
        </mxCell>
        <mxCell id="6rHMkKPi71kGI9fP-m07-21" value="" style="html=1;shadow=0;dashed=0;align=center;verticalAlign=middle;shape=mxgraph.arrows2.stylisedArrow;dy=0.6;dx=40;notch=15;feather=0.4;rounded=0;strokeWidth=1;fontSize=27;strokeColor=none;fillColor=#000040;rotation=45;" parent="1" vertex="1">
          <mxGeometry x="730" y="120" width="100" height="60" as="geometry" />
        </mxCell>
        <mxCell id="6rHMkKPi71kGI9fP-m07-23" value="" style="html=1;shadow=0;dashed=0;align=center;verticalAlign=middle;shape=mxgraph.arrows2.stylisedArrow;dy=0.6;dx=40;notch=15;feather=0.4;rounded=0;strokeWidth=1;fontSize=27;strokeColor=none;fillColor=#000040;rotation=-225;" parent="1" vertex="1">
          <mxGeometry x="1050" y="120" width="100" height="60" as="geometry" />
        </mxCell>
        <mxCell id="6rHMkKPi71kGI9fP-m07-24" value="" style="html=1;shadow=0;dashed=0;align=center;verticalAlign=middle;shape=mxgraph.arrows2.stylisedArrow;dy=0.6;dx=40;notch=15;feather=0.4;rounded=0;strokeWidth=1;fontSize=27;strokeColor=none;fillColor=#000040;rotation=90;" parent="1" vertex="1">
          <mxGeometry x="890" y="150" width="100" height="60" as="geometry" />
        </mxCell>
        <mxCell id="6rHMkKPi71kGI9fP-m07-26" value="&lt;b&gt;&lt;font style=&quot;font-size: 25px;&quot;&gt;Documentation&lt;/font&gt;&lt;/b&gt;" style="whiteSpace=wrap;html=1;strokeColor=#FFFFFF;fillColor=#000040;rounded=1;strokeWidth=8;fontColor=#FFFFFF;" parent="1" vertex="1">
          <mxGeometry x="410" y="450" width="220" height="60" as="geometry" />
        </mxCell>
        <mxCell id="6rHMkKPi71kGI9fP-m07-27" value="&lt;font style=&quot;font-size: 25px;&quot;&gt;&lt;b&gt;Custom Scripting&lt;br&gt;&lt;/b&gt;&lt;/font&gt;" style="whiteSpace=wrap;html=1;strokeColor=#FFFFFF;fillColor=#000040;rounded=1;strokeWidth=8;fontColor=#FFFFFF;" parent="1" vertex="1">
          <mxGeometry x="920" y="450" width="250" height="60" as="geometry" />
        </mxCell>
        <mxCell id="6rHMkKPi71kGI9fP-m07-28" value="&lt;font style=&quot;font-size: 25px;&quot;&gt;&lt;b&gt;Artificial Intelligence&lt;br&gt;&lt;/b&gt;&lt;/font&gt;" style="whiteSpace=wrap;html=1;strokeColor=#FFFFFF;fillColor=#000040;rounded=1;strokeWidth=8;fontColor=#FFFFFF;" parent="1" vertex="1">
          <mxGeometry x="630" y="450" width="290" height="60" as="geometry" />
        </mxCell>
        <mxCell id="6rHMkKPi71kGI9fP-m07-29" value="&lt;font size=&quot;1&quot;&gt;&lt;b style=&quot;font-size: 25px;&quot;&gt;Community&lt;/b&gt;&lt;/font&gt;" style="whiteSpace=wrap;html=1;strokeColor=#FFFFFF;fillColor=#000040;rounded=1;strokeWidth=8;fontColor=#FFFFFF;" parent="1" vertex="1">
          <mxGeometry x="1170" y="450" width="180" height="60" as="geometry" />
        </mxCell>
        <mxCell id="6rHMkKPi71kGI9fP-m07-30" value="&lt;font style=&quot;font-size: 20px;&quot; color=&quot;#000040&quot;&gt;&lt;b&gt;PE Parser&lt;br&gt;&lt;/b&gt;&lt;/font&gt;" style="whiteSpace=wrap;html=1;strokeColor=#FFFFFF;fillColor=#BFB4A9;rounded=1;strokeWidth=8;fontColor=#FFFFFF;" parent="1" vertex="1">
          <mxGeometry x="197" y="600" width="123" height="60" as="geometry" />
        </mxCell>
        <mxCell id="6rHMkKPi71kGI9fP-m07-31" value="&lt;font style=&quot;font-size: 20px;&quot; color=&quot;#000040&quot;&gt;&lt;b&gt;ELF Parser&lt;br&gt;&lt;/b&gt;&lt;/font&gt;" style="whiteSpace=wrap;html=1;strokeColor=#FFFFFF;fillColor=#BFB4A9;rounded=1;strokeWidth=8;fontColor=#FFFFFF;" parent="1" vertex="1">
          <mxGeometry x="330" y="600" width="140" height="60" as="geometry" />
        </mxCell>
        <mxCell id="6rHMkKPi71kGI9fP-m07-32" value="&lt;font style=&quot;font-size: 20px;&quot; color=&quot;#000040&quot;&gt;&lt;b&gt;Signature Detector&lt;br&gt;&lt;/b&gt;&lt;/font&gt;" style="whiteSpace=wrap;html=1;strokeColor=#FFFFFF;fillColor=#BFB4A9;rounded=1;strokeWidth=8;fontColor=#FFFFFF;" parent="1" vertex="1">
          <mxGeometry x="197" y="670" width="215" height="60" as="geometry" />
        </mxCell>
        <mxCell id="6rHMkKPi71kGI9fP-m07-33" value="&lt;div&gt;&lt;font style=&quot;font-size: 20px;&quot; color=&quot;#000040&quot;&gt;&lt;b&gt;Documentation Service&lt;br&gt;&lt;/b&gt;&lt;/font&gt;&lt;/div&gt;" style="whiteSpace=wrap;html=1;strokeColor=#FFFFFF;fillColor=#BFB4A9;rounded=1;strokeWidth=8;fontColor=#FFFFFF;" parent="1" vertex="1">
          <mxGeometry x="539.25" y="600" width="260.75" height="60" as="geometry" />
        </mxCell>
        <mxCell id="6rHMkKPi71kGI9fP-m07-34" value="&lt;font style=&quot;font-size: 20px;&quot; color=&quot;#000040&quot;&gt;&lt;b&gt;Monaco Scripting Editor&lt;br&gt;&lt;/b&gt;&lt;/font&gt;" style="whiteSpace=wrap;html=1;strokeColor=#FFFFFF;fillColor=#BFB4A9;rounded=1;strokeWidth=8;fontColor=#FFFFFF;" parent="1" vertex="1">
          <mxGeometry x="1090" y="600" width="260" height="60" as="geometry" />
        </mxCell>
        <mxCell id="6rHMkKPi71kGI9fP-m07-35" value="&lt;div&gt;&lt;font style=&quot;font-size: 20px;&quot; color=&quot;#000040&quot;&gt;&lt;b&gt;External Services&lt;br&gt;&lt;/b&gt;&lt;/font&gt;&lt;/div&gt;" style="whiteSpace=wrap;html=1;strokeColor=#FFFFFF;fillColor=#BFB4A9;rounded=1;strokeWidth=8;fontColor=#FFFFFF;" parent="1" vertex="1">
          <mxGeometry x="539.25" y="670" width="203.75" height="60" as="geometry" />
        </mxCell>
        <mxCell id="6rHMkKPi71kGI9fP-m07-36" value="&lt;div&gt;&lt;font style=&quot;font-size: 20px;&quot; color=&quot;#000040&quot;&gt;&lt;b&gt;Machine Learning&lt;br&gt;&lt;/b&gt;&lt;/font&gt;&lt;/div&gt;" style="whiteSpace=wrap;html=1;strokeColor=#FFFFFF;fillColor=#BFB4A9;rounded=1;strokeWidth=8;fontColor=#FFFFFF;" parent="1" vertex="1">
          <mxGeometry x="749.25" y="670" width="203.75" height="60" as="geometry" />
        </mxCell>
        <mxCell id="6rHMkKPi71kGI9fP-m07-37" value="" style="sketch=0;outlineConnect=0;fontColor=#232F3E;gradientColor=none;fillColor=#232F3D;strokeColor=none;dashed=0;verticalLabelPosition=bottom;verticalAlign=top;align=center;html=1;fontSize=12;fontStyle=0;aspect=fixed;pointerEvents=1;shape=mxgraph.aws4.gear;" parent="1" vertex="1">
          <mxGeometry x="311.5" y="530" width="51" height="51" as="geometry" />
        </mxCell>
        <mxCell id="6rHMkKPi71kGI9fP-m07-38" value="" style="ellipse;shape=cloud;whiteSpace=wrap;html=1;" parent="1" vertex="1">
          <mxGeometry x="620" y="521" width="92.5" height="60" as="geometry" />
        </mxCell>
        <mxCell id="6rHMkKPi71kGI9fP-m07-39" value="" style="sketch=0;aspect=fixed;pointerEvents=1;shadow=0;dashed=0;html=1;strokeColor=none;labelPosition=center;verticalLabelPosition=bottom;verticalAlign=top;align=center;fillColor=#000000;shape=mxgraph.azure.script_file" parent="1" vertex="1">
          <mxGeometry x="1196.5" y="531" width="47" height="50" as="geometry" />
        </mxCell>
        <mxCell id="6rHMkKPi71kGI9fP-m07-40" value="&lt;font style=&quot;font-size: 20px;&quot; color=&quot;#000040&quot;&gt;&lt;b&gt;Entropy Analyzer&lt;br&gt;&lt;/b&gt;&lt;/font&gt;" style="whiteSpace=wrap;html=1;strokeColor=#FFFFFF;fillColor=#BFB4A9;rounded=1;strokeWidth=8;fontColor=#FFFFFF;" parent="1" vertex="1">
          <mxGeometry x="197" y="740" width="203" height="60" as="geometry" />
        </mxCell>
        <mxCell id="6rHMkKPi71kGI9fP-m07-41" value="&lt;font style=&quot;font-size: 20px;&quot; color=&quot;#000040&quot;&gt;&lt;b&gt;Anomaly Detector&lt;br&gt;&lt;/b&gt;&lt;/font&gt;" style="whiteSpace=wrap;html=1;strokeColor=#FFFFFF;fillColor=#BFB4A9;rounded=1;strokeWidth=8;fontColor=#FFFFFF;" parent="1" vertex="1">
          <mxGeometry x="197" y="810" width="203" height="60" as="geometry" />
        </mxCell>
      </root>
    </mxGraphModel>
  </diagram>
</mxfile>
